<svg xmlns="http://www.w3.org/2000/svg" viewBox="0 0 500 500"><g id="freepik--background-complete--inject-112"><rect y="382.4" width="500" height="0.25" style="fill:#ebebeb"></rect><path d="M237,337.8H43.91a5.71,5.71,0,0,1-5.7-5.71V60.66A5.71,5.71,0,0,1,43.91,55H237a5.71,5.71,0,0,1,5.71,5.71V332.09A5.71,5.71,0,0,1,237,337.8ZM43.91,55.2a5.46,5.46,0,0,0-5.45,5.46V332.09a5.46,5.46,0,0,0,5.45,5.46H237a5.47,5.47,0,0,0,5.46-5.46V60.66A5.47,5.47,0,0,0,237,55.2Z" style="fill:#ebebeb"></path><path d="M453.31,337.8H260.21a5.72,5.72,0,0,1-5.71-5.71V60.66A5.72,5.72,0,0,1,260.21,55h193.1A5.71,5.71,0,0,1,459,60.66V332.09A5.71,5.71,0,0,1,453.31,337.8ZM260.21,55.2a5.47,5.47,0,0,0-5.46,5.46V332.09a5.47,5.47,0,0,0,5.46,5.46h193.1a5.47,5.47,0,0,0,5.46-5.46V60.66a5.47,5.47,0,0,0-5.46-5.46Z" style="fill:#ebebeb"></path><rect x="52.46" y="398.49" width="33.21" height="0.25" style="fill:#ebebeb"></rect><rect x="146.33" y="397.5" width="54.1" height="0.25" style="fill:#ebebeb"></rect><rect x="86.67" y="389.21" width="19.11" height="0.25" style="fill:#ebebeb"></rect><rect x="435.12" y="390.89" width="14.78" height="0.25" style="fill:#ebebeb"></rect><rect x="391.47" y="390.89" width="34.74" height="0.25" style="fill:#ebebeb"></rect><rect x="267.33" y="395.11" width="45.45" height="0.25" style="fill:#ebebeb"></rect><rect x="251.61" y="252.52" width="4.28" height="1.97" rx="0.96" transform="translate(507.49 507.02) rotate(-180)" style="fill:#e0e0e0"></rect><path d="M287,206,267,220A12.19,12.19,0,0,1,287,206Z" style="fill:#e6e6e6"></path><path d="M263.05,203.86l5.47,7.77,10.07-7.09-5.47-7.77a6.16,6.16,0,0,0-8.58-1.49h0A6.16,6.16,0,0,0,263.05,203.86Z" style="fill:#e6e6e6"></path><rect x="256.35" y="194.26" width="2.22" height="62" transform="translate(443.83 512.14) rotate(-164.19)" style="fill:#e6e6e6"></rect><path d="M263,192.33a3.83,3.83,0,1,0,5.22,1.47A3.83,3.83,0,0,0,263,192.33Z" style="fill:#e6e6e6"></path><polygon points="239.41 253.5 257.47 253.5 258.88 260.67 237.99 260.67 239.41 253.5" style="fill:#e6e6e6"></polygon><rect x="67.8" y="260.67" width="211.16" height="17.93" transform="translate(346.77 539.26) rotate(180)" style="fill:#ebebeb"></rect><rect x="70.34" y="262.74" width="77.68" height="13.78" transform="translate(218.37 539.26) rotate(180)" style="fill:#f5f5f5"></rect><rect x="150.79" y="262.74" width="77.68" height="13.78" transform="translate(379.26 539.26) rotate(180)" style="fill:#f5f5f5"></rect><polygon points="236.11 382.4 240.77 382.4 230.8 278.59 226.14 278.59 236.11 382.4" style="fill:#f5f5f5"></polygon><polygon points="277.18 382.4 281.85 382.4 271.88 278.59 267.21 278.59 277.18 382.4" style="fill:#f5f5f5"></polygon><polygon points="110.66 382.4 106 382.4 115.96 278.59 120.63 278.59 110.66 382.4" style="fill:#f5f5f5"></polygon><polygon points="69.59 382.4 64.92 382.4 74.89 278.59 79.56 278.59 69.59 382.4" style="fill:#f5f5f5"></polygon><polygon points="177.08 222.33 193.41 222.33 200.21 260.67 183.88 260.67 177.08 222.33" style="fill:#e0e0e0"></polygon><polygon points="144.28 190.32 235.62 190.32 228.46 245.87 137.12 245.87 144.28 190.32" style="fill:#e6e6e6"></polygon><polygon points="146.28 191.63 233.28 191.63 226.46 244.56 139.46 244.56 146.28 191.63" style="fill:#fafafa"></polygon><rect x="398.33" y="193.98" width="9.83" height="51.52" transform="translate(806.5 439.48) rotate(180)" style="fill:#f0f0f0"></rect><rect x="399.92" y="197.94" width="6.67" height="34.93" transform="translate(806.5 430.81) rotate(180)" style="fill:#fafafa"></rect><rect x="377.33" y="193.98" width="21" height="51.52" style="fill:#e0e0e0"></rect><rect x="386.44" y="193.98" width="9.83" height="51.52" transform="translate(782.72 439.48) rotate(180)" style="fill:#f0f0f0"></rect><rect x="388.03" y="197.94" width="6.67" height="34.93" transform="translate(782.72 430.81) rotate(180)" style="fill:#fafafa"></rect><rect x="365.44" y="193.98" width="21" height="51.52" style="fill:#e0e0e0"></rect><rect x="372.67" y="173.92" width="3.56" height="208.47" transform="translate(748.89 556.32) rotate(180)" style="fill:#ebebeb"></rect><rect x="432.33" y="173.92" width="3.56" height="208.47" transform="translate(868.22 556.32) rotate(180)" style="fill:#ebebeb"></rect><rect x="357.33" y="173.92" width="3.56" height="208.47" transform="translate(718.22 556.32) rotate(180)" style="fill:#ebebeb"></rect><rect x="417" y="173.92" width="3.56" height="208.47" transform="translate(837.56 556.32) rotate(180)" style="fill:#ebebeb"></rect><rect x="414.78" y="270.66" width="9.83" height="51.52" transform="translate(839.39 592.84) rotate(180)" style="fill:#f0f0f0"></rect><rect x="416.36" y="274.62" width="6.67" height="34.93" transform="translate(839.39 584.18) rotate(180)" style="fill:#fafafa"></rect><rect x="393.78" y="270.66" width="21" height="51.52" style="fill:#e0e0e0"></rect><rect x="402.89" y="270.66" width="9.83" height="51.52" transform="translate(815.61 592.84) rotate(180)" style="fill:#f0f0f0"></rect><rect x="404.47" y="274.62" width="6.67" height="34.93" transform="translate(815.61 584.18) rotate(180)" style="fill:#fafafa"></rect><rect x="381.89" y="270.66" width="21" height="51.52" style="fill:#e0e0e0"></rect><rect x="357.33" y="168.81" width="80.44" height="5.11" transform="translate(795.11 342.74) rotate(180)" style="fill:#f0f0f0"></rect><rect x="357.33" y="245.5" width="80.44" height="5.11" transform="translate(795.11 496.1) rotate(180)" style="fill:#f0f0f0"></rect><rect x="357.33" y="322.18" width="80.44" height="5.11" transform="translate(795.11 649.47) rotate(180)" style="fill:#f0f0f0"></rect><rect x="113.31" y="74.09" width="199.82" height="99.83" style="fill:#ebebeb"></rect><rect x="313.13" y="74.09" width="1.2" height="99.83" transform="translate(627.47 248.01) rotate(180)" style="fill:#e0e0e0"></rect><rect x="168.31" y="29.1" width="89.83" height="189.82" transform="translate(337.23 -89.22) rotate(90)" style="fill:#fff"></rect><rect x="73.89" y="123.51" width="89.83" height="0.99" transform="translate(242.82 5.2) rotate(90)" style="fill:#e0e0e0"></rect><rect x="259.91" y="88.78" width="32.42" height="45.56" style="fill:#f5f5f5"></rect><rect x="162.47" y="88.78" width="32.42" height="45.56" style="fill:#f5f5f5"></rect><rect x="237.48" y="108.56" width="32.42" height="45.56" style="fill:#ebebeb"></rect><rect x="212.78" y="110.56" width="12.66" height="12.66" style="fill:#f5f5f5"></rect><rect x="133.13" y="143.33" width="12.66" height="12.66" style="fill:#f5f5f5"></rect><rect x="185.77" y="128" width="12.66" height="12.66" style="fill:#f0f0f0"></rect><circle cx="393.78" cy="110.56" r="28.22" transform="translate(-12.33 159.11) rotate(-22.5)" style="fill:#ebebeb"></circle><path d="M393.78,111.55a.92.92,0,0,1-.46-.11l-11.94-6.13a1,1,0,0,1-.44-1.35,1,1,0,0,1,1.35-.43l10,5.15-4.54-19.62a1,1,0,1,1,1.94-.45l5,21.72a1,1,0,0,1-1,1.22Z" style="fill:#fff"></path></g><g id="freepik--Shadow--inject-112"><ellipse id="freepik--path--inject-112" cx="250" cy="416.24" rx="193.89" ry="11.32" style="fill:#f5f5f5"></ellipse></g><g id="freepik--Character--inject-112"><polygon points="241.69 409.43 234.23 407.42 238.68 389.68 246.14 391.69 241.69 409.43" style="fill:#ff8b7b"></polygon><path d="M234.14,405.37l8.34,2.74a.56.56,0,0,1,.38.69l-1.76,6.73a1.38,1.38,0,0,1-1.73.89c-2.89-1-4.22-1.63-7.89-2.83-2.25-.74-7.7-2.42-10.82-3.44s-2-4.07-.6-3.92c6.33.69,10,.14,12.65-.82A2.27,2.27,0,0,1,234.14,405.37Z" style="fill:#263238"></path><polygon points="246.14 391.7 238.68 389.69 236.38 398.83 243.85 400.84 246.14 391.7" style="opacity:0.2"></polygon><path d="M265,210.2S254.4,273.79,251.27,296C247.85,320.26,235,393.32,235,393.32l12.69,4.8s20.18-71.85,25.76-95.46c6.06-25.63,19.4-92.46,19.4-92.46Z" style="fill:#214BE0"></path><path d="M265,210.2S254.4,273.79,251.27,296C247.85,320.26,235,393.32,235,393.32l12.69,4.8s20.18-71.85,25.76-95.46c6.06-25.63,19.4-92.46,19.4-92.46Z" style="opacity:0.30000000000000004"></path><path d="M281.89,236.28c-5.4,13.48-6,36.39-3.82,45.77,3.31-15.41,7.11-33.85,10-48.19C287.05,230.18,285.16,228.08,281.89,236.28Z" style="opacity:0.30000000000000004"></path><polygon points="248.22 399.9 233.54 395.5 233.96 389.49 251.43 394.6 248.22 399.9" style="fill:#263238"></polygon><path d="M231.09,405.8a9.37,9.37,0,0,0,2.06.39.2.2,0,0,0,.18-.1.19.19,0,0,0,0-.19c-.18-.25-1.81-2.37-2.83-2.31a.67.67,0,0,0-.57.35,1,1,0,0,0-.09,1A2.11,2.11,0,0,0,231.09,405.8Zm1.67,0c-1.42-.17-2.38-.53-2.61-1a.63.63,0,0,1,.08-.66.32.32,0,0,1,.27-.18C231.05,403.92,232.08,405,232.76,405.78Z" style="fill:#214BE0"></path><path d="M233.11,406.18h.09a.18.18,0,0,0,.13-.11c0-.09.91-2.17.4-3.14a.92.92,0,0,0-.66-.48.7.7,0,0,0-.8.32c-.43.75.16,2.66.76,3.35Zm0-3.34a.52.52,0,0,1,.33.27,4.12,4.12,0,0,1-.29,2.52,3.65,3.65,0,0,1-.53-2.67c0-.1.15-.2.41-.14Z" style="fill:#214BE0"></path><path d="M278.54,151.35c-.51.89-.92,1.55-1.39,2.31l-1.39,2.16q-1.41,2.15-2.91,4.21a97.94,97.94,0,0,1-6.49,8,66.82,66.82,0,0,1-7.67,7.33,42,42,0,0,1-9.64,6l-.14.06-.46.17a7.46,7.46,0,0,1-2.73.32,8.42,8.42,0,0,1-1.75-.31,10.31,10.31,0,0,1-2.07-.88,17.5,17.5,0,0,1-2.46-1.71,36.27,36.27,0,0,1-3.43-3.27c-1-1.1-1.95-2.2-2.85-3.32s-1.74-2.22-2.6-3.46a4.8,4.8,0,0,1,7.07-6.38l.14.13c.92.79,1.92,1.69,2.89,2.5s2,1.64,2.92,2.39a28.21,28.21,0,0,0,2.77,1.95,4.44,4.44,0,0,0,1,.46c.06,0,.07,0-.2-.13a3.14,3.14,0,0,0-.75-.15,4.87,4.87,0,0,0-1.73.21l-.6.24a29.85,29.85,0,0,0,6.46-4.52,61.21,61.21,0,0,0,6-6.24c1.9-2.25,3.68-4.67,5.38-7.15q1.29-1.86,2.48-3.77l1.17-1.92c.36-.62.78-1.33,1.05-1.84l0,0a6.85,6.85,0,1,1,12.06,6.5A.83.83,0,0,0,278.54,151.35Z" style="fill:#263238"></path><path d="M260.07,164c4.1-8.44,11.12-7.94,13.93-5.34-.26.39-.52.78-.79,1.16a89.57,89.57,0,0,1-6.18,7.8,68.36,68.36,0,0,1-7.29,7.13c-.83.68-1.67,1.34-2.55,2A33.91,33.91,0,0,1,260.07,164Z" style="opacity:0.30000000000000004"></path><path d="M227.57,154.59l-3.14-5-4.38,6s2.25,4.49,6.95,5l.84-2.39A4.19,4.19,0,0,0,227.57,154.59Z" style="fill:#ff8b7b"></path><path d="M226,160l5,7c2.09,1,6.11-1.72,4.75-4a95.1,95.1,0,0,1-8.88-8.35Z" style="fill:#ff8b7b"></path><path d="M231.15,158.46c-.2.68-1.25.43-2.35-.55s-1.82-2.33-1.62-3,1.25-.44,2.35.55S231.35,157.78,231.15,158.46Z" style="fill:#263238"></path><path d="M227,162.35l-1.33-1.63c2.47-2,2.44-3.91,2.44-4l2.1-.12C230.22,156.74,230.36,159.63,227,162.35Z" style="fill:#263238"></path><polygon points="219.07 148.19 216.61 153.39 220.06 155.61 224.43 149.57 219.07 148.19" style="fill:#ff8b7b"></polygon><polygon points="308.21 408.51 300.4 408.51 298.53 390.42 306.35 390.42 308.21 408.51" style="fill:#ff8b7b"></polygon><path d="M299.72,407.61h8.78a.56.56,0,0,1,.58.53l.42,6.95a1.38,1.38,0,0,1-1.37,1.39c-3.05-.06-4.51-.24-8.37-.24-2.38,0-8.92.25-12.2.25s-3.18-3.24-1.79-3.54c6.23-1.31,10.4-3.13,12.6-4.86A2.23,2.23,0,0,1,299.72,407.61Z" style="fill:#263238"></path><polygon points="306.35 390.43 298.53 390.43 299.5 399.75 307.31 399.75 306.35 390.43" style="opacity:0.2"></polygon><path d="M280.21,210.2s.67,67.87,1.94,90.24c1.39,24.49,14.14,97.06,14.14,97.06H310.6s-6.23-70.59-5.37-94.84c.93-26.32,1.5-92.46,1.5-92.46Z" style="fill:#214BE0"></path><path d="M280.21,210.2s.67,67.87,1.94,90.24c1.39,24.49,14.14,97.06,14.14,97.06H310.6s-6.23-70.59-5.37-94.84c.93-26.32,1.5-92.46,1.5-92.46Z" style="opacity:0.30000000000000004"></path><polygon points="311.18 397.5 293.73 397.5 292.87 392.07 311.92 392.92 311.18 397.5" style="fill:#263238"></polygon><path d="M297,409a9.78,9.78,0,0,0,2.08-.28.18.18,0,0,0,.14-.14.23.23,0,0,0-.07-.19c-.25-.17-2.47-1.68-3.42-1.31a.68.68,0,0,0-.42.52,1,1,0,0,0,.22,1A2.18,2.18,0,0,0,297,409Zm1.58-.54c-1.39.27-2.42.23-2.79-.13a.66.66,0,0,1-.13-.65.34.34,0,0,1,.2-.26C296.33,407.19,297.63,407.85,298.53,408.43Z" style="fill:#214BE0"></path><path d="M299,408.69a.15.15,0,0,0,.09,0,.16.16,0,0,0,.09-.14c0-.1.19-2.34-.6-3.1a.91.91,0,0,0-.77-.26.7.7,0,0,0-.66.55c-.18.86,1,2.49,1.76,2.95A.15.15,0,0,0,299,408.69Zm-1.07-3.16a.55.55,0,0,1,.4.16,4.06,4.06,0,0,1,.51,2.48c-.68-.57-1.46-1.81-1.34-2.37,0-.11.08-.23.35-.27Z" style="fill:#214BE0"></path><path d="M268.24,146.73a7.6,7.6,0,0,1,5.76-5.22,46.82,46.82,0,0,1,5.85-1,156.94,156.94,0,0,1,17.76,0c3.1.15,6.26.53,8.78.9h.09a5,5,0,0,1,4.17,5.79,246,246,0,0,0-3.84,31.67c-.61,15.46.22,27.6-.08,31.33H265C262.41,172.47,265.69,155.32,268.24,146.73Z" style="fill:#f5f5f5"></path><path d="M282.31,147.32l1,2.52a1.34,1.34,0,0,0,1.14.83l3.06.25a1.33,1.33,0,0,0,1.16-.49l2.1-2.58-3.92-2.47Z" style="fill:#214BE0"></path><path d="M284.69,149.83s-3.83,19.69-5.42,26.95c-.16,5.32,2.22,12.46,2.22,12.46s3.85-9.06,3.85-12.92c0-7,1.54-26.49,1.54-26.49Z" style="fill:#214BE0"></path><path d="M296.42,139.76c-3.28,13.34-6.3,47.15-6.27,73.58h17.67c.31-3.94-.57-16.74.07-33,.49-12.42,2.71-25.81,4.06-33.39a5.25,5.25,0,0,0-4.41-6.11h-.09c-2.66-.39-6-.79-9.26-.95Z" style="fill:#263238"></path><path d="M302.37,160.44c.29-8.86,6.83-12.25,8.67-9.87a1.89,1.89,0,0,1,.22.31c-1.15,6.83-2.55,16.23-3.16,25.49C305,174.58,302.09,168.86,302.37,160.44Z" style="opacity:0.30000000000000004"></path><path d="M266.09,146.91a8.86,8.86,0,0,1,6.34-6,78.81,78.81,0,0,1,8.4-.86c-3.35,11.58-9.91,46.9-8,73.26H261.73C259.1,173.79,263.61,154.15,266.09,146.91Z" style="fill:#263238"></path><rect x="276.81" y="169.1" width="44.1" height="54.22" transform="translate(-41.32 306.19) rotate(-51.2)" style="fill:#214BE0"></rect><rect x="283.37" y="182.8" width="8.96" height="54.22" transform="translate(-56.1 302.73) rotate(-51.2)" style="opacity:0.2"></rect><rect x="286.68" y="198.1" width="6.55" height="27" transform="translate(-56.64 305) rotate(-51.2)" style="fill:#fff"></rect><path d="M277.31,198.45a2.33,2.33,0,1,1-3.27.36A2.32,2.32,0,0,1,277.31,198.45Z" style="fill:#263238"></path><path d="M275.85,203a2.71,2.71,0,0,1-.29-5.41,2.67,2.67,0,0,1,2,.58h0a2.72,2.72,0,0,1-1.71,4.83Zm0-4.65h-.21a1.89,1.89,0,0,0-1.3.71,1.94,1.94,0,1,0,2.72-.3h0A1.91,1.91,0,0,0,275.86,198.33Z" style="fill:#fff"></path><path d="M280.7,140.44c5.16-1.22,6.07-4.42,5.72-7.92a22.22,22.22,0,0,0-.41-2.62l6.47-5.37,4.75-3.94c-1.32,5.72-2.8,16.14,1.06,20,0,0-3.2,5.27-12,4.79C278.79,144.94,280.7,140.44,280.7,140.44Z" style="fill:#ff8b7b"></path><path d="M290.68,150.05a10.34,10.34,0,0,0-3.8-4.67,26.83,26.83,0,0,0,10.5-6.45l2.71,1S300.05,146.87,290.68,150.05Z" style="fill:#fff"></path><path d="M281.59,149.42s.75-2.24,5.29-4c-2.6-.74-3.62-6-3.62-6l-2.53.53S275.06,147.31,281.59,149.42Z" style="fill:#fff"></path><path d="M286,129.9a22.22,22.22,0,0,1,.41,2.62c2.41-.49,5.64-3.06,6-5.53a11.19,11.19,0,0,0,.09-2.46Z" style="opacity:0.2"></path><path d="M281.18,102.13l-2.8.74A9,9,0,0,0,277,112c.87,2.67,2.27,2.64,1.58,6.74,3.67,2.3,4.74-1.46,4.74-1.46S291.7,101.16,281.18,102.13Z" style="fill:#263238"></path><path d="M298.25,109.15c.13,7.77.59,12.3-3,16.7a10.1,10.1,0,0,1-17.57-3.35c-2.19-6.75-2-18.33,5.26-22.25A10.23,10.23,0,0,1,298.25,109.15Z" style="fill:#ff8b7b"></path><path d="M296.86,105.72c9-4,2.81-11.62-4.78-9.35-9.91,3-13.31-5.08-17.5,0-1.87,2.27,1.95,5.87-1.93,8.66,1.42.76,3.84.16,4.23-2.83,2.45,3.36,6.85,2.85,8.83,2.38C290.83,103.36,293.35,107.25,296.86,105.72Z" style="fill:#263238"></path><path d="M298.14,102.31s5.17-1.3,5.4-5.75C305,98.51,304.92,101.76,298.14,102.31Z" style="fill:#263238"></path><path d="M293.77,96.08c-2.26.36-6.54.83-12.56-2.83C283.78,95.44,288.21,98.64,293.77,96.08Z" style="fill:#263238"></path><path d="M298.5,100.6l-2.89.25a9.05,9.05,0,0,0-2.91,8.81c.41,2.78,1.79,3,.41,6.91,3.23,2.88,4.92-.64,4.92-.64S311.7,102.31,298.5,100.6Z" style="fill:#263238"></path><path d="M300.79,114.85a7.29,7.29,0,0,1-3.09,3.81c-1.84,1-2.95-.6-2.6-2.73.32-1.91,1.66-4.77,3.59-5S301.5,112.85,300.79,114.85Z" style="fill:#ff8b7b"></path><path d="M286.85,112.76c0,.63-.24,1.18-.65,1.22s-.78-.43-.83-1,.24-1.18.65-1.23S286.8,112.13,286.85,112.76Z" style="fill:#263238"></path><path d="M279.77,113.22c.05.63-.24,1.18-.65,1.23s-.78-.43-.83-1.06.24-1.17.65-1.22S279.72,112.6,279.77,113.22Z" style="fill:#263238"></path><path d="M282,113.47a23.23,23.23,0,0,1-2.58,5.71,3.57,3.57,0,0,0,3,.23Z" style="fill:#ff5652"></path><path d="M285.4,120.8a5.39,5.39,0,0,0-4.25.22.18.18,0,1,0,.18.32,5.19,5.19,0,0,1,4.58.08.2.2,0,0,0,.25-.09.19.19,0,0,0-.09-.25C285.84,121,285.62,120.88,285.4,120.8Z" style="fill:#263238"></path><path d="M286.4,107.22a.26.26,0,0,0-.16.09.37.37,0,0,0,0,.52,3.57,3.57,0,0,0,3.1,1.25.38.38,0,0,0,.31-.43.37.37,0,0,0-.43-.3,2.8,2.8,0,0,1-2.42-1A.36.36,0,0,0,286.4,107.22Z" style="fill:#263238"></path><path d="M279.71,110.33a.39.39,0,0,0-.35,0,3.14,3.14,0,0,1-2.72.3.36.36,0,0,0-.49.18.38.38,0,0,0,.18.49h0a3.83,3.83,0,0,0,3.4-.33.38.38,0,0,0,.13-.51A.46.46,0,0,0,279.71,110.33Z" style="fill:#263238"></path><path d="M312.34,144l.52.72.39.58c.24.38.47.74.69,1.11.45.73.83,1.46,1.2,2.2.74,1.47,1.38,3,2,4.45a48.17,48.17,0,0,1,2.45,9.21,52.83,52.83,0,0,1,.72,9.37,55.71,55.71,0,0,1-.85,9.24,28.18,28.18,0,0,1-1.27,5.09,27.9,27.9,0,0,1-2.26,4.69,40.2,40.2,0,0,1-5.91,7.49,57.46,57.46,0,0,1-6.86,5.82,56.06,56.06,0,0,1-7.57,4.67,3.42,3.42,0,0,1-3.94-5.49l.16-.15c1.8-1.76,3.73-3.71,5.46-5.65a66.21,66.21,0,0,0,4.83-6,34.46,34.46,0,0,0,3.57-6.13,15.81,15.81,0,0,0,1-2.95,18.86,18.86,0,0,0,.41-3,50.77,50.77,0,0,0-.86-14.51,45.36,45.36,0,0,0-2-6.79,32.07,32.07,0,0,0-1.38-3.16c-.25-.5-.52-1-.77-1.46l-.39-.67-.17-.29-.08-.12,0,0s0,0,0,0A6.85,6.85,0,0,1,312.34,144Z" style="fill:#263238"></path><path d="M288.32,205.5l-4.06,1.56,8,5.69s6.08-3.67,3.93-6.65l-1.31-.53A9,9,0,0,0,288.32,205.5Z" style="fill:#ff8b7b"></path><path d="M282.25,212.48l4.95,4.64a1.48,1.48,0,0,0,2.23-.24l2.86-4.13-8-5.69L282,210.61A1.48,1.48,0,0,0,282.25,212.48Z" style="fill:#ff8b7b"></path></g><g id="freepik--Desk--inject-112"><path d="M380,268.08H105.82a2.5,2.5,0,0,1-2.5-2.5h0a2.5,2.5,0,0,1,2.5-2.5H380a2.5,2.5,0,0,1,2.5,2.5h0A2.5,2.5,0,0,1,380,268.08Z" style="fill:#214BE0"></path><path d="M380,268.08H351a2.5,2.5,0,0,1-2.5-2.5h0a2.5,2.5,0,0,1,2.5-2.5h29a2.5,2.5,0,0,1,2.5,2.5h0A2.5,2.5,0,0,1,380,268.08Z" style="opacity:0.2"></path><polygon points="341.43 416.23 343.53 416.23 365.51 268.08 363.41 268.08 341.43 416.23" style="fill:#263238"></polygon><polygon points="387.49 416.23 385.39 416.23 363.41 268.08 365.51 268.08 387.49 416.23" style="fill:#263238"></polygon><polygon points="96.22 416.23 98.32 416.23 120.3 268.08 118.2 268.08 96.22 416.23" style="fill:#263238"></polygon><polygon points="142.28 416.23 140.18 416.23 118.2 268.08 120.3 268.08 142.28 416.23" style="fill:#263238"></polygon><g style="opacity:0.1"><polygon points="321.41 164.91 154.01 263.18 292.53 263.18 339.61 183.11 321.41 164.91" style="fill:#214BE0"></polygon><polygon points="321.41 164.91 154.01 263.18 292.53 263.18 339.61 183.11 321.41 164.91" style="fill:#fff;opacity:0.4"></polygon></g><polygon points="259.73 252.97 176.32 252.97 170.36 199.72 253.76 199.72 259.73 252.97" style="fill:#214BE0"></polygon><polygon points="258.46 252.97 175.06 252.97 169.1 199.72 252.5 199.72 258.46 252.97" style="fill:#263238"></polygon><polygon points="220.85 252.97 213.09 252.97 221.59 234.24 220.85 252.97"></polygon><polygon points="195.97 263.08 211.77 263.08 221.59 234.24 205.8 234.24 195.97 263.08" style="fill:#214BE0"></polygon><polygon points="227.45 260.95 189.54 260.95 189.54 263.08 230.96 263.08 227.45 260.95" style="fill:#263238"></polygon><polygon points="195.2 263.08 211 263.08 220.82 234.24 205.02 234.24 195.2 263.08" style="fill:#263238"></polygon><rect x="115.82" y="246.09" width="54.6" height="16.99" style="fill:#214BE0"></rect><rect x="115.82" y="246.09" width="54.6" height="16.99" style="fill:#fff;opacity:0.6000000000000001"></rect><rect x="115.82" y="246.09" width="42.13" height="16.99" style="fill:#fff;opacity:0.6000000000000001"></rect><polygon points="157.95 246.09 115.82 246.09 115.82 247.83 157 247.83 157.95 246.09" style="fill:#214BE0;opacity:0.2"></polygon><polygon points="170.42 252.06 115.82 251.47 115.82 251.02 170.42 251.02 170.42 252.06" style="fill:#214BE0;opacity:0.2"></polygon><polygon points="115.82 253.81 170.42 256.88 170.42 256.42 115.82 252.77 115.82 253.81" style="fill:#214BE0;opacity:0.2"></polygon><polygon points="115.82 260.55 170.42 259.3 170.42 258.85 115.82 259.51 115.82 260.55" style="fill:#214BE0;opacity:0.2"></polygon><rect x="112.28" y="232.9" width="54.6" height="13.19" style="fill:#214BE0"></rect><rect x="112.28" y="232.9" width="54.6" height="13.19" style="fill:#fff;opacity:0.6000000000000001"></rect><rect x="112.28" y="232.9" width="43.51" height="13.19" style="fill:#fff;opacity:0.6000000000000001"></rect><polygon points="154.01 232.9 112.28 232.9 112.28 234.29 153.07 234.29 154.01 232.9" style="fill:#214BE0;opacity:0.2"></polygon><polygon points="166.89 242.24 112.28 242.75 112.28 243.15 166.89 243.15 166.89 242.24" style="fill:#214BE0;opacity:0.2"></polygon><polygon points="112.28 240.72 166.89 238.06 166.89 238.46 112.28 241.63 112.28 240.72" style="fill:#214BE0;opacity:0.2"></polygon><polygon points="112.28 234.87 166.89 235.96 166.89 236.35 112.28 235.78 112.28 234.87" style="fill:#214BE0;opacity:0.2"></polygon><rect x="110.13" y="224.04" width="54.6" height="8.86" style="fill:#214BE0"></rect><rect x="110.13" y="224.04" width="54.6" height="8.86" style="fill:#fff;opacity:0.6000000000000001"></rect><rect x="110.13" y="224.04" width="42.13" height="8.86" style="fill:#fff;opacity:0.6000000000000001"></rect><polygon points="164.73 227.16 110.13 226.85 110.13 226.61 164.73 226.61 164.73 227.16" style="fill:#214BE0;opacity:0.2"></polygon><polygon points="110.13 228.07 164.73 229.67 164.73 229.43 110.13 227.53 110.13 228.07" style="fill:#214BE0;opacity:0.2"></polygon><polygon points="164.73 224.04 113.23 224.04 114.37 225.13 164.73 225.13 164.73 224.04" style="fill:#214BE0;opacity:0.2"></polygon><polygon points="110.13 231.59 164.73 230.93 164.73 230.7 110.13 231.04 110.13 231.59" style="fill:#214BE0;opacity:0.2"></polygon><rect x="113.23" y="217.16" width="54.6" height="6.88" style="fill:#214BE0"></rect><rect x="113.23" y="217.16" width="54.6" height="6.88" style="fill:#fff;opacity:0.6000000000000001"></rect><rect x="113.23" y="217.16" width="43.51" height="6.88" style="fill:#fff;opacity:0.6000000000000001"></rect><polygon points="167.83 222.03 113.23 222.3 113.23 222.5 167.83 222.5 167.83 222.03" style="fill:#214BE0;opacity:0.2"></polygon><polygon points="113.23 221.24 167.83 219.85 167.83 220.06 113.23 221.71 113.23 221.24" style="fill:#214BE0;opacity:0.2"></polygon><polygon points="113.23 218.19 167.83 218.75 167.83 218.96 113.23 218.66 113.23 218.19" style="fill:#214BE0;opacity:0.2"></polygon><rect x="274.43" y="256.25" width="54.6" height="6.88" style="fill:#214BE0"></rect><rect x="274.43" y="256.25" width="54.6" height="6.88" style="fill:#fff;opacity:0.6000000000000001"></rect><rect x="274.43" y="256.25" width="43.51" height="6.88" style="fill:#fff;opacity:0.6000000000000001"></rect><polygon points="329.03 261.13 274.43 261.39 274.43 261.6 329.03 261.6 329.03 261.13" style="fill:#214BE0;opacity:0.2"></polygon><polygon points="274.43 260.33 329.03 258.95 329.03 259.15 274.43 260.81 274.43 260.33" style="fill:#214BE0;opacity:0.2"></polygon><polygon points="274.43 257.28 329.03 257.85 329.03 258.05 274.43 257.75 274.43 257.28" style="fill:#214BE0;opacity:0.2"></polygon><path d="M339.61,183.11l-18.2-18.2,18.34-8.58a2.48,2.48,0,0,1,2.54.84l5.07,5.06a2.51,2.51,0,0,1,.84,2.55Z" style="fill:#214BE0"></path><rect x="340.52" y="152.77" width="6.66" height="15.81" rx="2.65" transform="translate(214.33 -196.08) rotate(45)" style="fill:#214BE0"></rect><polygon points="360.29 260.21 333.85 260.21 331.65 263.08 362.49 263.08 360.29 260.21" style="fill:#214BE0"></polygon><path d="M347.07,260.72a.52.52,0,0,1-.29-.09.51.51,0,0,1-.14-.71l35.2-51.5L343.45,161a.52.52,0,1,1,.8-.65l38.63,47.72a.51.51,0,0,1,0,.62L347.5,260.5A.51.51,0,0,1,347.07,260.72Z" style="fill:#214BE0"></path><circle cx="382.48" cy="208.4" r="2.61" style="fill:#214BE0"></circle></g></svg>